<svg t="1649414097291" class="icon" viewBox="0 0 1024 1024" version="1.1" xmlns="http://www.w3.org/2000/svg" p-id="4860" width="256" height="256"><path d="M698.688917 630.203484l-54.142988-31.465618 25.596543-0.107549 54.142988 31.465618-25.596543 0.107549z" fill="#C30000" p-id="4861"></path><path d="M407.75486 956.167624l-54.142988-31.450254 0.737475 0.41483 54.142988 31.465618-0.737475-0.430194" fill="#9E0000" p-id="4862"></path><path d="M408.492335 956.597818l-54.142988-31.465618a64.175727 64.175727 0 0 0 7.006017 3.426188l54.142988 31.465618a64.175727 64.175727 0 0 1-7.006017-3.426188" fill="#A30000" p-id="4863"></path><path d="M415.498352 960.024006l-54.142988-31.465618a63.223154 63.223154 0 0 0 7.128929 2.504344l54.142988 31.465618a63.223154 63.223154 0 0 1-7.128929-2.519708" fill="#A80000" p-id="4864"></path><path d="M422.627281 962.543714L368.484293 931.062732a68.877132 68.877132 0 0 0 7.43621 1.720776L430.094219 964.26449a68.877132 68.877132 0 0 1-7.43621-1.720776" fill="#AD0000" p-id="4865"></path><path d="M430.094219 964.26449l-54.142987-31.465618a78.233852 78.233852 0 0 0 7.958589 0.937208l54.142987 31.465618a78.233852 78.233852 0 0 1-7.958589-0.937208" fill="#B30000" p-id="4866"></path><path d="M438.02208 965.201698l-54.142988-31.465618a80.75356 80.75356 0 0 0 8.849706 0l54.142988 31.465618a84.778946 84.778946 0 0 1-8.849706 0" fill="#B80000" p-id="4867"></path><path d="M446.871786 965.263155l-54.142988-31.465619a94.842413 94.842413 0 0 0 10.355384-1.029392l54.142988 31.465618a94.842413 94.842413 0 0 1-10.355384 1.029393" fill="#BD0000" p-id="4868"></path><path d="M457.22717 964.233762l-54.142988-31.465618a118.30335 118.30335 0 0 0 12.767543-2.734805L470.040805 961.498957a118.30335 118.30335 0 0 1-12.767543 2.734805" fill="#C20000" p-id="4869"></path><path d="M470.040805 961.498957l-54.142988-31.465618A157.005446 157.005446 0 0 0 434.703441 923.534337l54.142988 31.450254a154.547195 154.547195 0 0 1-18.897808 6.514366" fill="#C70000" p-id="4870"></path><path d="M488.892521 954.984591L434.703441 923.534337a234.102357 234.102357 0 0 0 26.963945-13.458927 275.447073 275.447073 0 0 0 55.802308-42.911852l54.142988 31.465619a274.801782 274.801782 0 0 1-55.802308 42.896487 229.231946 229.231946 0 0 1-26.963945 13.458927" fill="#CC0000" p-id="4871"></path><path d="M571.658774 898.629177l-54.142988-31.465619q8.588516-8.496332 16.808294-17.960599l54.142988 31.465618q-8.204414 9.448904-16.808294 17.9606" fill="#C70000" p-id="4872"></path><path d="M588.467068 880.668577l-54.142988-31.465618q6.499002-7.451575 12.736816-15.502348l54.142988 31.465618q-6.237813 8.050773-12.736816 15.502348" fill="#C20000" p-id="4873"></path><path d="M601.203884 865.166229l-54.142988-31.465618q5.577158-7.221114 10.969947-14.887786l54.142988 31.465619q-5.392789 7.682036-10.969947 14.887785" fill="#BD0000" p-id="4874"></path><path d="M612.173831 850.278444l-54.142988-31.465619q5.162328-7.35939 10.124923-15.13361l54.142988 31.465618q-4.977959 7.789584-10.124923 15.133611" fill="#B80000" p-id="4875"></path><path d="M622.298754 835.144833l-54.142988-31.465618q4.947231-7.682036 9.740821-15.947906l54.142988 31.465618q-4.762862 8.204414-9.740821 15.947906" fill="#B30000" p-id="4876"></path><path d="M632.039575 819.196927l-54.142988-31.465618c0.307281-0.537743 0.629927-1.075485 0.937208-1.628592q4.609221-7.973953 8.94189-16.116911l54.142988 31.465619q-4.332668 8.127594-8.94189 16.116911c-0.307281 0.553107-0.629927 1.090849-0.937208 1.628591" fill="#AD0000" p-id="4877"></path><path d="M641.918673 801.451425l-54.142988-31.465619q4.79359-8.987982 9.218443-18.19106l54.142988 31.465618q-4.424853 9.218443-9.218443 18.191061" fill="#A80000" p-id="4878"></path><path d="M651.137116 783.260364l-54.142988-31.465618q4.609221-9.448904 8.742157-19.082177l54.142987 31.465618q-4.194392 9.633273-8.742156 19.082177" fill="#A30000" p-id="4879"></path><path d="M659.879272 764.178187l-54.142987-31.465618q4.424853-10.201743 8.434875-20.633948L668.314148 743.62106q-4.010023 10.447569-8.434876 20.633948" fill="#9E0000" p-id="4880"></path><path d="M668.314148 743.62106l-54.142988-31.465619q4.37876-11.354049 8.26587-23.046107L676.580018 720.574952q-3.902474 11.66133-8.26587 23.046108" fill="#990000" p-id="4881"></path><path d="M676.580018 720.574952l-54.142988-31.465618q4.455581-13.366742 8.265871-27.086858l54.142988 31.465618q-3.825654 13.73548-8.265871 27.086858" fill="#940000" p-id="4882"></path><path d="M684.845889 693.426638l-54.142988-31.465618q4.609221-16.808294 8.373419-34.154331l54.142988 31.465618q-3.718105 17.346037-8.373419 34.154331" fill="#8F0000" p-id="4883"></path><path d="M693.219308 659.272307L639.045592 627.806689q3.072814-14.365407 5.469609-29.068823l54.142988 31.465618q-2.396795 14.703416-5.46961 29.068823" fill="#8A0000" p-id="4884"></path><path d="M697.613432 248.252667l-54.142988-31.465618q-25.581179-77.112275-67.755555-101.556513L629.827149 146.634698q42.174376 24.582514 67.755555 101.617969" fill="#850000" p-id="4885"></path><path d="M586.177822 98.068868l-54.127624-31.465618q6.145629-0.460922 12.014704-1.336674L598.20789 96.79365q-5.838347 0.875752-12.030068 1.336675" fill="#BD0000" p-id="4886"></path><path d="M598.20789 96.79365l-54.142988-31.527074a129.980045 129.980045 0 0 0 14.30395-2.995994L612.51184 93.720836a133.667422 133.667422 0 0 1-14.30395 3.072814" fill="#C20000" p-id="4887"></path><path d="M612.51184 93.720836l-54.142988-31.450254a111.865804 111.865804 0 0 0 13.366742-4.517037l54.127624 31.465618a110.713499 110.713499 0 0 1-13.351378 4.501673" fill="#C70000" p-id="4888"></path><path d="M625.863218 89.219163l-54.127624-31.465618a96.993383 96.993383 0 0 0 11.476962-5.638615 126.661405 126.661405 0 0 0 25.842368-19.128269L663.197912 64.5291a126.661405 126.661405 0 0 1-25.842368 19.051449 98.437606 98.437606 0 0 1-11.492326 5.638614" fill="#CC0000" p-id="4889"></path><path d="M663.197912 64.5291l-54.142988-31.542439c0.629927-0.614563 1.24449-1.24449 1.828325-1.874416s1.352038-1.444223 2.028057-2.212427l54.142988 31.465619c-0.676019 0.768204-1.336674 1.536407-2.028058 2.212426s-1.198398 1.24449-1.828324 1.874417" fill="#C70000" p-id="4890"></path><path d="M667.054294 60.365437L612.92667 28.899818c0.860388-0.998665 1.73614-2.058786 2.581164-3.072814l54.142988 31.465619c-0.845024 1.090849-1.720776 2.15097-2.581164 3.072814" fill="#C20000" p-id="4891"></path><path d="M669.635458 57.215802l-54.142988-31.465618c0.783568-1.014029 1.536407-2.07415 2.335339-3.164999l54.142988 31.465618c-0.768204 1.090849-1.536407 2.15097-2.335339 3.164999" fill="#BD0000" p-id="4892"></path><path d="M671.970797 54.050803L617.827809 22.585185c0.75284-1.075485 1.536407-2.181698 2.22779-3.334003L674.198587 50.701436c-0.737475 1.152305-1.536407 2.258519-2.22779 3.334003" fill="#B80000" p-id="4893"></path><path d="M674.198587 50.701436l-54.142988-31.450254c0.75284-1.167669 1.536407-2.381431 2.212427-3.625921l54.142987 31.450254q-1.075485 1.889781-2.212426 3.641285" fill="#B30000" p-id="4894"></path><path d="M676.411013 47.075515l-54.142987-31.450254c0.768204-1.32131 1.536407-2.688713 2.273882-4.102207L678.684896 43.0194c-0.737475 1.413495-1.536407 2.780897-2.273883 4.086843" fill="#AD0000" p-id="4895"></path><path d="M678.684896 43.0194L624.541908 11.523054c0.814296-1.536407 1.628592-3.072814 2.412159-4.747498l54.142988 31.465618c-0.783568 1.643956-1.536407 3.226455-2.412159 4.747498" fill="#A80000" p-id="4896"></path><path d="M681.097055 38.241174L626.954067 6.775556c0.875752-1.828325 1.751504-3.702741 2.596528-5.700071l54.142988 31.465618c-0.845024 1.966601-1.720776 3.871746-2.596528 5.700071" fill="#A30000" p-id="4897"></path><path d="M683.693583 32.541103L629.550595 1.075485c0.153641-0.353374 0.322646-0.706747 0.476287-1.075485l54.142987 31.465618-0.476286 1.075485" fill="#9E0000" p-id="4898"></path><path d="M341.428163 1008.697385l-54.142988-31.465619a123.296674 123.296674 0 0 1-19.497007-14.104217Q197.174896 901.087428 196.560333 681.104653a882.573722 882.573722 0 0 1 7.205749-115.92192l54.142988 31.465619a882.573722 882.573722 0 0 0-7.205749 115.921919Q251.317884 932.599139 321.931156 994.593167a125.263275 125.263275 0 0 0 19.497007 14.104218" fill="#850000" p-id="4899"></path><path d="M257.90907 596.648352L203.766082 565.182733q4.424853-34.138967 11.553782-67.525094l54.142988 31.465619q-7.128929 33.401491-11.553782 67.525094" fill="#8A0000" p-id="4900"></path><path d="M269.462852 529.123258l-54.142988-31.465619q5.254512-24.582514 11.983976-48.796291l54.142988 31.465619q-6.729463 24.198413-11.983976 48.796291" fill="#8F0000" p-id="4901"></path><path d="M281.446828 480.326967L227.288476 448.861348Q232.92709 428.657594 239.579733 408.684301l54.127624 31.496347q-6.637279 19.973293-12.291257 40.146319" fill="#940000" p-id="4902"></path><path d="M293.707357 440.180648L239.579733 408.684301q5.976624-17.899143 12.767544-35.552461l54.142987 31.465618q-6.79092 17.653318-12.767543 35.552462" fill="#990000" p-id="4903"></path><path d="M306.4749 404.628186L252.331912 373.162568q6.329997-16.516377 13.366743-32.848385L319.903099 371.81053q-7.082837 16.316644-13.428199 32.848385" fill="#9E0000" p-id="4904"></path><path d="M319.903099 371.81053L265.698655 340.314183q2.212426-5.116236 4.501673-10.201743 4.148299-9.218443 8.450239-18.160333l54.142988 31.450255q-4.30194 8.94189-8.45024 18.175696-2.273883 5.100872-4.501672 10.201744" fill="#A30000" p-id="4905"></path><path d="M332.855011 343.402362L278.712023 311.890651q5.991988-12.398806 12.291257-24.244505l54.127624 31.527075q-6.299269 11.845699-12.291257 24.229141" fill="#A80000" p-id="4906"></path><path d="M345.130904 319.173221l-54.142988-31.465618q6.007352-11.323321 12.291257-22.170356l54.142988 31.465619q-6.314633 10.75485-12.291257 22.170355" fill="#AD0000" p-id="4907"></path><path d="M357.468254 297.002866l-54.142988-31.465619q6.145629-10.67803 12.736815-20.849045L370.174341 276.153821q-6.499002 10.186379-12.736816 20.849045" fill="#B30000" p-id="4908"></path><path d="M370.174341 276.153821l-54.11226-31.465619q6.621915-10.324656 13.505019-20.173025l54.142988 31.465618q-6.898468 9.833006-13.505019 20.173026" fill="#B80000" p-id="4909"></path><path d="M383.710088 255.980795l-54.142988-31.465618q7.35939-10.462933 15.026062-20.372759l54.142988 31.465618q-7.682036 9.909826-15.026062 20.372759" fill="#BD0000" p-id="4910"></path><path d="M398.73615 235.608036l-54.142988-31.465618q8.696064-11.200408 17.791594-21.663341l54.142988 31.465618q-9.126258 10.462933-17.791594 21.663341" fill="#C20000" p-id="4911"></path><path d="M416.527744 213.944695l-54.142988-31.465618q11.738151-13.474291 24.183049-25.765548l54.142988 31.465618q-12.444898 12.291257-24.183049 25.796276" fill="#C70000" p-id="4912"></path><path d="M440.710793 188.148419L386.567805 156.713529a422.511966 422.511966 0 0 1 85.762247-65.635313 246.009513 246.009513 0 0 1 29.114915-14.426863l54.142988 31.465618a248.237303 248.237303 0 0 0-29.191736 14.411499 423.157257 423.157257 0 0 0-85.762247 65.650677" fill="#CC0000" p-id="4913"></path><path d="M555.587955 108.086243l-54.142988-31.465619A208.352173 208.352173 0 0 1 526.88787 67.909196l54.142988 31.465618a208.352173 208.352173 0 0 0-25.504359 8.711429" fill="#C70000" p-id="4914"></path><path d="M581.092314 99.374814L526.88787 67.909196c1.705412-0.460922 3.39546-0.891116 5.100871-1.305946l54.127624 31.465618c-1.690048 0.41483-3.380096 0.845024-5.085507 1.305946" fill="#C20000" p-id="4915"></path><path d="M684.169869 31.465618l38.947922 192.050894-25.504359 24.766883q-25.88846-77.972663-68.662035-102.140347T517.915252 161.322751q-89.587901 51.715465-138.276643 192.542543t-48.289277 307.127789Q331.856346 841.951117 374.783562 920.092785t141.05754 21.432879q68.247206-39.378115 117.120317-123.957328t65.712134-187.364852l25.581179-0.107549a661.853471 661.853471 0 0 1-78.356765 214.144429q-57.323351 99.20581-134.051523 143.500427-119.332743 68.907861-189.930652 6.852376T250.703321 712.570271q-0.537743-185.751624 73.747543-350.992213T526.47304 122.497742a225.529205 225.529205 0 0 1 59.704782-24.428874Q615.999484 95.88717 637.355544 83.580549a122.789659 122.789659 0 0 0 27.655328-21.002686q10.631937-11.123588 19.158997-31.112245z" fill="#FFCC00" p-id="4916"></path></svg>